# Two rigid boxes, in metres. Select the arm component to create a joint.
# Suggested arm pivot: 0.1 0 0.15; axis: 0 0 1.
o base
v -0.1 -0.1 0
v 0.1 -0.1 0
v 0.1 0.1 0
v -0.1 0.1 0
v -0.1 -0.1 0.2
v 0.1 -0.1 0.2
v 0.1 0.1 0.2
v -0.1 0.1 0.2
f 4 3 2 1
f 5 6 7 8
f 1 2 6 5
f 2 3 7 6
f 3 4 8 7
f 4 1 5 8
o arm
v 0.1 -0.05 0.12
v 0.6 -0.05 0.12
v 0.6 0.05 0.12
v 0.1 0.05 0.12
v 0.1 -0.05 0.18
v 0.6 -0.05 0.18
v 0.6 0.05 0.18
v 0.1 0.05 0.18
f 12 11 10 9
f 13 14 15 16
f 9 10 14 13
f 10 11 15 14
f 11 12 16 15
f 12 9 13 16
